# xmcd CD database file generated by OrangeCD 5.2
#
# Track frame offsets:
#	150
#	13170
#	29407
#	37710
#	54732
#	69182
#	78750
#	104065
#	120255
#	146400
#
# Disc length: 2125 seconds
#
# Revision: 5
# Processed by: cddbd v1.5.1PL2 Copyright (c) Steve Scherf et al.
# Submitted via: OrangeCD 5.2
#
DISCID=77084b0a
DTITLE=Various Artist - Midnight Blues
DYEAR=1994
DGENRE=Blues
TTITLE0=Junior Wells - Snatch It Back And Hold It
TTITLE1=Luther Allison - Dust My Broom
TTITLE2=Louis Myers - That's All Right
TTITLE3=Dave Spector - That's How Strong My Love Is
TTITLE4=Little Walter - Muskadine Blues
TTITLE5=Junior Wells - Hoodoo Man Blues
TTITLE6=Luther Allison - The Sky Is Crying
TTITLE7=Louis Myers - Top 'O The Harp
TTITLE8=Dave Spector - I'm On The Outside Looking In
TTITLE9=Little Walter - Moonshine Blues
EXTD=more info
EXTT0=
EXTT1=
EXTT2=
EXTT3=
EXTT4=
EXTT5=
EXTT6=
EXTT7=
EXTT8=
EXTT9=
PLAYORDER=
